<?xml version="1.0" encoding="UTF-8" standalone="no"?>
<!DOCTYPE svg PUBLIC "-//W3C//DTD SVG 1.1//EN" "http://www.w3.org/Graphics/SVG/1.1/DTD/svg11.dtd">
<svg width="100%" height="100%" viewBox="0 0 4167 4167" version="1.1" xmlns="http://www.w3.org/2000/svg" xmlns:xlink="http://www.w3.org/1999/xlink" xml:space="preserve" xmlns:serif="http://www.serif.com/" style="fill-rule:evenodd;clip-rule:evenodd;stroke-linejoin:round;stroke-miterlimit:2;">
    <g id="Page-1" serif:id="Page 1" transform="matrix(4.166667,0,0,4.166667,0,0)">
        <rect x="0" y="0" width="1000" height="1000" style="fill:none;"/>
        <clipPath id="_clip1">
            <rect x="0" y="0" width="1000" height="1000"/>
        </clipPath>
        <g clip-path="url(#_clip1)">
            <g id="Layer-1" serif:id="Layer 1">
                <g transform="matrix(0.24,0,0,0.24,0,0)">
                    <rect x="-202" y="-40" width="4487" height="4269" style="fill:rgb(20,20,20);"/>
                </g>
                <g transform="matrix(0.626098,0,0,0.626098,260.816078,811.477679)">
                    <path d="M0,-987.22C0.038,-812.707 0.077,-638.195 0.115,-463.682L339.127,-463.682L339.127,-383.618L0.022,-383.618C0.416,-324.088 0.811,-264.558 1.205,-205.028C30.668,-167.778 162.677,-9.134 370.558,-1.594C592.152,6.443 736.573,-163.143 764.046,-196.702L764.046,-993.663L382.63,-749.918C255.087,-829.019 127.543,-908.119 0,-987.22" style="fill:rgb(255,235,80);fill-rule:nonzero;"/>
                </g>
            </g>
        </g>
    </g>
</svg>
